<svg width="800" height="1000" viewBox="0 0 800 1000" fill="none" xmlns="http://www.w3.org/2000/svg">
  <rect width="800" height="1000" rx="48" fill="#0F172A"/>
  <rect x="40" y="40" width="720" height="920" rx="36" stroke="#334155" stroke-width="2"/>
  <circle cx="400" cy="360" r="220" fill="#111827"/>
  <path d="M242 744C255 610 311 520 400 520C489 520 545 610 558 744" fill="#F8FAFC"/>
  <path d="M300 344C300 253 356 180 430 180C504 180 560 253 560 344V370H300V344Z" fill="#F8FAFC"/>
  <circle cx="368" cy="368" r="18" fill="#0F172A"/>
  <circle cx="470" cy="368" r="18" fill="#0F172A"/>
  <path d="M340 452C365 474 435 474 460 452" stroke="#0F172A" stroke-width="16" stroke-linecap="round"/>
  <rect x="160" y="784" width="480" height="88" rx="24" fill="#1E293B"/>
  <text x="400" y="840" text-anchor="middle" fill="#F8FAFC" font-family="Arial, sans-serif" font-size="38" font-weight="700">MURAD MAHMOOD</text>
</svg>
